<?xml version="1.0" encoding="utf-8"?>
<!-- Generator: Adobe Illustrator 23.0.3, SVG Export Plug-In . SVG Version: 6.00 Build 0)  -->
<svg version="1.1" id="Layer_1" xmlns="http://www.w3.org/2000/svg" xmlns:xlink="http://www.w3.org/1999/xlink" x="0px" y="0px"
	 viewBox="0 0 600 300" style="enable-background:new 0 0 600 300;" xml:space="preserve">
<g>
	<path d="M180.5,101.8v71.9h-14.7v-71.9H180.5z"/>
	<path d="M240.3,125.3v48.6c0,15.1-11.7,24.3-26.1,24.3c-13.9,0-24.2-8.6-25.2-20.8l14.6,0.1c0.6,5.2,5.1,7.4,11.1,7.4
		c5.7,0,10.9-3,10.9-10.9v-6.2c-3.7,2.4-8.5,3.8-13.9,3.8c-13.4,0-24.1-10.8-24.1-23.3c0-14.5,10.7-24.2,24.1-24.2
		c5.4,0,10.1,1.4,13.9,3.8v-2.6L240.3,125.3z M225.6,153.9V142c-3-4.3-7.1-5.8-11.2-5.8c-7.2,0-12.2,4.8-12.2,12.1
		c0,5.4,5,11.3,12.2,11.3C218.5,159.6,222.6,158.2,225.6,153.9z"/>
	<path d="M298.7,148.9c0,15-11.1,25.6-25.9,25.6c-15,0-26-10.7-26-25.6c0-14.9,11.1-25.7,26-25.7C287.6,123.2,298.7,134,298.7,148.9
		z M284.5,148.9c0-7-4.6-12.7-11.8-12.7c-7.2,0-11.9,5.7-11.9,12.7c0,7.2,4.6,12.6,11.9,12.6C279.9,161.5,284.5,156.1,284.5,148.9z"
		/>
	<path d="M389.7,125.3v48.3l-14.4,0.1V171c-3.7,2.4-8.5,3.9-13.9,3.9c-13.4,0-24.1-11.3-24.1-25.3c0-14.1,10.7-25.4,24.1-25.4
		c5.4,0,10.1,1.5,13.9,3.9v-2.7L389.7,125.3z M375.3,157v-14.8c-3-4.3-7.3-5.5-11.5-5.5c-7.4,0-12.4,5.9-12.4,12.9
		c0,7,5.1,12.8,12.4,12.8C368,162.4,372.2,161.3,375.3,157z"/>
	<path d="M448.7,147.5v26.2h-14.1v-24.5c0-7.9-3.9-12-10.9-12c-3.6,0-7.7,2.1-11.1,6.2v30.4h-14.5v-48.3h14.5v3.6
		c3.9-3.1,8.5-4.9,14-4.9C439.4,124.2,448.7,133.3,448.7,147.5z"/>
	<g>
		<path d="M522,103.7h-3.6v8.6h-2.1v-8.6h-3.6v-1.9h9.2V103.7z"/>
		<path d="M534.2,112.2h-2.1v-5.9l-2.7,4.3h-1.3v0l-2.8-4.4l0,5.9h-2.1v-10.5h1.5l4,6.4l4-6.4h1.5V112.2z"/>
	</g>
	<g id="lINT7W_10_">
		<g>
			<polygon points="159.1,173.7 144.2,173.7 134.5,137.5 113.6,173.7 96.9,173.7 129.2,117.7 124,98.3 80.5,173.7 63.8,173.7 
				118.9,78.2 133.5,78.2 139.9,101.9 155,101.9 144.7,119.8 			"/>
		</g>
	</g>
	<path d="M507.1,101.8v71.9h-14.7V171c-3.7,2.4-8.5,3.9-13.9,3.9c-13.4,0-24.1-11.3-24.1-25.4c0-14,10.7-25.3,24.1-25.3
		c5.4,0,10.1,1.5,13.9,3.9v-26.3H507.1z M492.4,157v-14.9c-3.1-4.3-7.3-5.5-11.6-5.5c-7.4,0-12.5,5.9-12.5,12.9
		c0,7.1,5.1,13,12.5,13C485.1,162.5,489.4,161.4,492.4,157z"/>
	<path d="M334.7,137.6c-3.2,0.4-10.7,0.8-15.1,6.8v29.3h-14.5v-48.2h14.5v3.6c3.3-2.8,8.3-4.5,15.1-3.8"/>
	<g>
		<path d="M258.1,196.1v5.8h11.7v5.9h-11.7v9.6h-6.7v-27.2h20.3v5.9H258.1z"/>
		<path d="M301.7,203.8c0,7.9-6.2,14.1-14.4,14.1c-8.2,0-14.4-6.2-14.4-14.1s6.2-14.1,14.4-14.1
			C295.5,189.7,301.7,195.9,301.7,203.8z M294.9,203.8c0-4.3-3.2-7.8-7.5-7.8c-4.4,0-7.5,3.5-7.5,7.8c0,4.3,3.2,7.8,7.5,7.8
			C291.7,211.5,294.9,208,294.9,203.8z"/>
		<path d="M330.1,204.7c0,8.4-4.9,13.2-12.7,13.2c-7.7,0-12.6-4.8-12.6-13.2v-14.5h6.8v14.6c0,4.2,2.3,6.7,5.8,6.7s5.9-2.6,5.9-6.7
			v-14.6h6.8V204.7z"/>
		<path d="M358.8,190.2v27.2h-5.2l-13-14.9v14.9h-6.7v-27.2h5.2l13.1,15.3v-15.3H358.8z"/>
		<path d="M388.5,203.7c0,8.1-6.1,13.7-14.7,13.7H363v-27.2h10.9C382.4,190.2,388.5,195.7,388.5,203.7z M381.7,203.7
			c0-4.2-3.4-7.4-7.8-7.4h-4.2v15h4.2C378.3,211.3,381.7,208,381.7,203.7z"/>
		<path d="M408.2,212.7h-11.5l-1.8,4.7h-7.2l11.5-27.2h6.5l11.5,27.2H410L408.2,212.7z M406,207l-3.6-9.1l-3.6,9.1H406z"/>
		<path d="M437.2,196.2h-8.7v21.1h-6.7v-21.1h-8.7v-6h24V196.2z"/>
		<path d="M446.6,190.2v27.2h-6.7v-27.2H446.6z"/>
		<path d="M478.7,203.8c0,7.9-6.2,14.1-14.4,14.1c-8.2,0-14.4-6.2-14.4-14.1s6.2-14.1,14.4-14.1
			C472.5,189.7,478.7,195.9,478.7,203.8z M471.9,203.8c0-4.3-3.2-7.8-7.5-7.8c-4.4,0-7.5,3.5-7.5,7.8c0,4.3,3.2,7.8,7.5,7.8
			C468.7,211.5,471.9,208,471.9,203.8z"/>
		<path d="M507.1,190.2v27.2h-5.2l-13-14.9v14.9h-6.7v-27.2h5.2l13.1,15.3v-15.3H507.1z"/>
	</g>
</g>
</svg>
