<svg id="Layer_1" data-name="Layer 1" xmlns="http://www.w3.org/2000/svg" width="126" height="126" viewBox="0 0 126 126">
  <title>ledu-token-v01</title>
  <path d="M64,1a63,63,0,1,0,63,63A63,63,0,0,0,64,1Zm0,121a58,58,0,1,1,58-58A58,58,0,0,1,64,122ZM64,8a56,56,0,1,0,56,56A56,56,0,0,0,64,8ZM35.82,77H20V50.73h6.09V72.12h9.73ZM55.6,55.41H44.83v6.13h8.25V66H44.83V72.3H55.6V77H38.7V50.73H55.6ZM81.9,69.1a12.21,12.21,0,0,1-2.76,4.16A12.57,12.57,0,0,1,74.84,76a15.35,15.35,0,0,1-5.58,1H59.06V50.73h10.2a15.14,15.14,0,0,1,5.58,1,12.72,12.72,0,0,1,4.3,2.74,12.07,12.07,0,0,1,2.76,4.15,14.53,14.53,0,0,1,0,10.49Zm25.32,1.61A9.91,9.91,0,0,1,105,74.19a10.07,10.07,0,0,1-3.55,2.27,14.1,14.1,0,0,1-9.42,0,10.16,10.16,0,0,1-3.55-2.27,9.72,9.72,0,0,1-2.23-3.48,12.16,12.16,0,0,1-.78-4.43V50.73h6.09V66.26a8.21,8.21,0,0,0,.35,2.48,5.33,5.33,0,0,0,1,1.85,4.47,4.47,0,0,0,1.63,1.18,6.2,6.2,0,0,0,4.38,0,4.36,4.36,0,0,0,1.63-1.17,5,5,0,0,0,1-1.84,8.25,8.25,0,0,0,.35-2.48V50.73H108V66.28A12.16,12.16,0,0,1,107.22,70.71Zm-32.53-13A6.27,6.27,0,0,0,72.38,56a7.86,7.86,0,0,0-3.12-.59H65.19V72.3h4.07a7.86,7.86,0,0,0,3.12-.59A6.36,6.36,0,0,0,74.69,70a7.5,7.5,0,0,0,1.45-2.66,12.44,12.44,0,0,0,0-7A7.37,7.37,0,0,0,74.69,57.68Z" transform="translate(-1 -1)" style="fill: #22282e"/>
</svg>
