<?xml version="1.0" encoding="UTF-8"?>
<!DOCTYPE svg PUBLIC "-//W3C//DTD SVG 1.1//EN" "http://www.w3.org/Graphics/SVG/1.1/DTD/svg11.dtd">
<!-- Creator: CorelDRAW X6 -->
<svg xmlns="http://www.w3.org/2000/svg" xml:space="preserve" width="11in" height="3.00002in" version="1.1" style="shape-rendering:geometricPrecision; text-rendering:geometricPrecision; image-rendering:optimizeQuality; fill-rule:evenodd; clip-rule:evenodd"
viewBox="0 0 11000 3000"
 xmlns:xlink="http://www.w3.org/1999/xlink">
 <defs>
  <style type="text/css">
   <![CDATA[
    .fil0 {fill:#D8D8D8;fill-rule:nonzero}
    .fil1 {fill:#FF6900;fill-rule:nonzero}
    .fil3 {fill:#605D57;fill-rule:nonzero;fill-opacity:0.301961}
    .fil2 {fill:url(#id1);fill-rule:nonzero;fill-opacity:0.301961}
   ]]>
  </style>
     <clipPath id="id0" style="clip-rule:nonzero">
      <rect x="-155112" y="483649" width="3235" height="3364"/>
     </clipPath>
  <linearGradient id="id1" gradientUnits="userSpaceOnUse" x1="1649.03" y1="1901.25" x2="1971.87" y2="2224.09">
   <stop offset="0" style="stop-color:black"/>
   <stop offset="0.25098" style="stop-color:#7F7F7F"/>
   <stop offset="1" style="stop-color:white"/>
  </linearGradient>
 </defs>
 <g id="__x0023_Layer_x0020_1">
  <metadata id="CorelCorpID_0Corel-Layer"/>
  <polygon class="fil0" points="11000,3000 0,3000 0,0 11000,0 "/>
  <g id="_285151856">
   <g>
    <g style="clip-path:url(#id0)">
     <image transform="matrix(1 0 0 1 -160612 485513)" x="5500" y="-1864" width="3235" height="3364" xlink:href="p1dt75r91715s81apu18s414k1lla4_Images\p1dt75r91715s81apu18s414k1lla4_ImgID1.png"/>
    </g>
   </g>
   <g>
    <path class="fil1" d="M1645 609c-496,0 -899,403 -899,899l0 714c0,182 120,314 286,314 85,0 169,-37 236,-104l375 -375 225 225 155 151c67,67 150,103 235,103 79,0 151,-32 204,-89 53,-58 82,-136 82,-225l0 -714c0,-496 -403,-899 -899,-899zm276 1170l0 0c153,-153 153,-402 0,-555 -74,-74 -173,-115 -278,-115 -105,0 -204,41 -278,115 -74,74 -115,173 -115,278 0,105 41,204 115,278l117 117 -375 375c-24,24 -51,37 -75,37 -37,0 -58,-32 -58,-86l0 -727c7,-363 308,-659 671,-659 370,0 671,301 671,671l0 714c0,31 -8,56 -21,70 -10,10 -22,16 -37,16 -24,0 -51,-13 -75,-37l-155 -150 -224 -224 117 -117zm-394 -394l0 0c31,-31 73,-48 117,-48 44,0 85,17 117,48 64,64 64,169 0,233l-117 117 -117 -117c-31,-31 -48,-73 -48,-117 0,-44 17,-85 48,-117z"/>
    <polygon class="fil2" points="1990,2080 1805,1896 1645,2057 1830,2242 "/>
   </g>
  </g>
  <g id="_285152144">
   <g>
    <polygon class="fil3" points="10355,972 10355,986 10318,986 10318,1090 10302,1090 10302,986 10265,986 10265,972 "/>
    <polygon class="fil3" points="10374,972 10394,972 10437,1064 10479,972 10500,972 10500,1090 10484,1090 10484,995 10440,1090 10432,1090 10388,995 10388,1090 10374,1090 "/>
   </g>
   <polygon class="fil3" points="10182,2007 9955,2007 9581,1526 9581,2007 9406,2007 9406,970 9581,970 9581,1424 9938,970 10148,970 9749,1467 "/>
   <path class="fil3" d="M7670 944c-291,0 -528,245 -528,545 0,301 237,545 528,545 291,0 527,-245 527,-545 0,-301 -237,-545 -527,-545zm0 918l0 0c-189,0 -343,-167 -343,-373 0,-205 154,-372 343,-372 189,0 343,167 343,372 0,205 -154,373 -343,373z"/>
   <polygon class="fil3" points="6840,970 6686,1774 6518,970 6344,970 6176,1774 6022,970 5840,970 6056,2007 6274,2007 6431,1250 6588,2007 6806,2007 7022,970 "/>
   <path class="fil3" d="M8949 1583l8 -2c47,-14 202,-77 202,-282 0,-105 -39,-193 -113,-253 -89,-72 -179,-73 -316,-74l-6 0 -328 0 0 1036 181 0 0 -390 186 0 208 390 209 0 -232 -424zm-167 -117l0 0 -14 1c-31,1 -57,2 -115,2l-75 0 0 -342 97 0c120,0 169,2 211,23 40,20 87,62 87,147 0,74 -33,163 -191,169z"/>
   <polygon class="fil3" points="3964,2007 3964,970 3788,970 3788,1690 3310,970 3144,970 3144,2007 3317,2007 3317,1274 3803,2007 "/>
   <path class="fil3" d="M4707 1476l-32 -7 32 -9c31,-9 62,-29 90,-61 37,-42 56,-105 56,-168 0,-206 -213,-276 -326,-276 -89,0 -181,31 -241,82 -81,68 -102,159 -111,221l181 0c12,-66 44,-146 165,-146 84,0 142,58 142,142 0,129 -120,150 -134,150l-78 0 0 144 43 0c29,0 82,3 116,23 48,26 75,60 75,122 0,81 -45,174 -171,174 -103,0 -173,-66 -173,-164l0 -25 -189 0c2,152 70,230 100,257 56,53 153,85 259,85 223,0 367,-124 367,-317 0,-191 -130,-218 -170,-227z"/>
   <polygon class="fil3" points="5719,970 4969,970 4969,1135 5250,1135 5250,2007 5432,2007 5432,1135 5719,1135 "/>
  </g>
 </g>
</svg>
