<?xml version="1.0" encoding="utf-8"?>
<!-- Generator: Adobe Illustrator 23.1.1, SVG Export Plug-In . SVG Version: 6.00 Build 0)  -->
<svg version="1.1" id="Layer_1" xmlns="http://www.w3.org/2000/svg" xmlns:xlink="http://www.w3.org/1999/xlink" x="0px" y="0px"
	 viewBox="0 0 567.4 125.2" style="enable-background:new 0 0 567.4 125.2;" xml:space="preserve">
<style type="text/css">
	.st0{fill:#010101;}
	.st1{fill:#FE3D01;}
	.st2{display:none;}
	.st3{display:inline;opacity:0.69;fill:none;stroke:#00AEEF;stroke-width:0.25;stroke-miterlimit:10;enable-background:new    ;}
</style>
<g>
	<path class="st0" d="M18.3,39.5c0.5-0.6,0.4-1.3,0.4-2c0.1-0.7,0.4-0.9,1-0.8c0.2,0,0.3,0,0.5,0c16.2,0,32.5,0,48.7,0
		c1,0,1.4,0.3,1.5,1.3c0.5,3.7,0.5,7.3,0,11c-0.1,0.9-0.4,1.2-1.3,1.2c-5.1-0.1-10.2,0-15.2,0c-1,0-1.2,0.2-1.2,1.2
		c0,16.3,0,32.6,0.1,48.9c0,1.3-0.3,1.7-1.6,1.8c-4.5,0.5-8.9,0.5-13.4,0c-0.9-0.1-1.2-0.4-1.2-1.3c0-16.4,0-32.8,0.1-49.3
		c0-1.1-0.3-1.3-1.3-1.3c-5,0.1-10,0-15,0c-1,0-1.5-0.2-1.5-1.3c0-0.5,0.1-1.1-0.4-1.5C18.3,44.6,18.3,42.1,18.3,39.5z"/>
	<path class="st0" d="M547.7,97.8c-0.5,0.9-0.4,1.9-0.5,2.8c-0.1,0.9-0.4,1.1-1.3,1.1c-13.6,0-27.1,0-40.7,0c-0.9,0-1.1-0.2-1.1-1.1
		c0-21,0-42,0-62.9c0-0.7,0.1-1.1,0.9-1.1c4.7-0.6,9.5-0.6,14.2,0c0.9,0.1,0.9,0.6,0.9,1.3c0,16.3,0,32.6,0,48.9
		c0,1.6,0,1.6,1.6,1.6c8,0,16,0,24,0c1.1,0,1.3,0.4,1.4,1.3c0.3,2.3,0.4,4.7,0.3,7c0,0.2,0,0.3,0.2,0.4
		C547.7,97.3,547.7,97.6,547.7,97.8z"/>
	<path class="st0" d="M303.2,92.2c3.1,1,6.2,1.9,9.4,2.1c2.9,0.2,5.8,0,8.6-0.9c6.1-2.1,9.1-7.5,7.7-14c-1.3-5.8-4.6-10.4-8.8-14.4
		c-6.1-5.8-13.1-9.7-21.4-11.2c-3.2-0.6-6.4-0.7-9.6,0c-7.8,1.8-11.4,7.8-9.3,15.6c0.9,3.5,2.7,6.5,4.9,9.4c0.2,0.2,0.4,0.5,0.5,0.8
		c-0.1,0.1-0.1,0.2-0.2,0.2c-4.2-4-7.5-8.6-8.8-14.4c-0.8-3.3-0.5-6.6,0.5-9.9c2-4.9,5.5-8.4,10.1-10.8c1.4-0.7,3-1.3,4.5-2
		c3.2-0.8,6.4-1.5,9.8-1.6c9.5-0.4,18.3,2,26.8,6c12.2,5.7,22,14.3,28.9,25.9c2.5,4.1,4.2,8.5,4.3,13.4c0.1,5.9-2.7,10-7.8,12.7
		c-4.2,2.2-8.7,3.1-13.4,3.2c-13.2,0.4-25.6-2.6-36.9-9.8C303,92.4,303.1,92.3,303.2,92.2z"/>
	<path class="st0" d="M171.2,69.2c0-10.4,0-20.9,0-31.3c0-1,0.2-1.3,1.2-1.3c14.4,0,28.7,0,43.1,0c0.9,0,1.2,0.3,1.3,1.2
		c0.5,3.7,0.5,7.5,0,11.2c-0.1,0.9-0.5,1-1.2,1c-9,0-18,0-27,0c-1,0-1.3,0.2-1.3,1.3c0.1,3.2,0.1,6.5,0,9.7c0,0.9,0.2,1.2,1.2,1.2
		c7.8,0,15.7,0,23.5,0c1,0,1.3,0.3,1.5,1.3c0.5,3.7,0.5,7.3,0,11c-0.1,0.8-0.4,1.1-1.3,1.1c-7.9,0-15.8,0-23.8,0
		c-0.9,0-1.1,0.2-1.1,1.1c0.1,3.6,0.1,7.1,0,10.7c0,0.9,0.3,1.1,1.1,1.1c9,0,17.9,0,26.9,0c1,0,1.4,0.2,1.5,1.3
		c0.5,3.7,0.5,7.4,0,11.1c-0.1,0.8-0.4,1-1.1,1c-14.5,0-29,0-43.4,0c-0.9,0-1-0.3-1-1.1C171.2,90.1,171.2,79.7,171.2,69.2z"/>
	<path class="st0" d="M74.2,69.3c0-10.5,0-20.9,0-31.4c0-0.9,0.2-1.2,1.2-1.2c14.4,0,28.8,0,43.2,0c0.9,0,1.2,0.3,1.3,1.1
		c0.5,3.7,0.5,7.5,0,11.2c-0.1,0.8-0.4,1.1-1.3,1.1c-9,0-18.1,0-27.1,0c-0.8,0-1.2,0.1-1.1,1.1c0.1,3.4,0.1,6.7,0,10.1
		c0,0.8,0.2,1.1,1.1,1c7.9,0,15.8,0,23.6-0.1c1.1,0,1.3,0.4,1.5,1.3c0.5,3.6,0.5,7.2,0,10.9c-0.1,0.9-0.4,1.2-1.4,1.2
		c-7.8-0.1-15.7,0-23.5-0.1c-0.9,0-1.3,0.1-1.3,1.2c0.1,3.5,0.1,7,0,10.4c0,1.1,0.4,1.3,1.3,1.3c8.9,0,17.8,0,26.7-0.1
		c1.1,0,1.3,0.4,1.5,1.3c0.5,3.6,0.5,7.2,0,10.9c-0.1,0.9-0.4,1.2-1.4,1.2c-14.4,0-28.7,0-43.1,0c-0.9,0-1.2-0.2-1.2-1.1
		C74.2,90.1,74.2,79.7,74.2,69.3z"/>
	<path class="st0" d="M467.7,89.4c-3.6,0-7.3,0-10.9,0c-0.8,0-1.1,0.2-1.3,1c-1.3,3.5-2.6,7-3.9,10.5c-0.2,0.7-0.6,0.9-1.3,1
		c-4.9,0.6-9.8,0.6-14.7,0c-0.7-0.1-0.9-0.3-0.6-1c8-19.5,15.9-39.1,23.9-58.6c0.6-1.6,1.3-3.2,1.9-4.8c0.2-0.5,0.5-0.8,1.1-0.9
		c3.9-0.6,7.8-0.6,11.7,0c0.7,0.1,0.9,0.4,1.2,1c8.6,21.1,17.1,42.2,25.7,63.3c0.4,0.9,0.1,1-0.7,1.1c-4.9,0.6-9.8,0.6-14.7,0
		c-0.6-0.1-1-0.3-1.2-1c-1.3-3.6-2.7-7.1-3.9-10.6c-0.2-0.7-0.6-0.9-1.3-0.9C474.9,89.4,471.3,89.4,467.7,89.4z M467.7,57.4
		c-2.2,6-4.4,11.8-6.6,17.6c-0.3,0.8,0.1,0.8,0.7,0.8c3.9,0,7.8,0,11.7,0c0.3,0,0.6,0.1,0.9-0.2C472.2,69.6,470,63.6,467.7,57.4z"/>
	<path class="st0" d="M221,69.1c0-10.4,0-20.9,0-31.3c0-0.9,0.2-1.2,1.2-1.2c8.5,0,17,0,25.4,0c1,0,2.1,0.2,3.1,0.2
		c0.5,0,0.8,0.3,1.1,0.6c6.1,5.9,12.1,11.8,18.5,17.4c0.4,0.4,0.6,0.8,0.6,1.3c1,12.3-6.5,21.7-18.8,23.6c-4.6,0.7-9.3,0.4-13.9,0.4
		c-1,0-1.2,0.3-1.2,1.2c0,6.4,0,12.7,0,19.1c0,0.9-0.3,1.2-1.2,1.3c-4.6,0.5-9.2,0.5-13.9,0c-0.8-0.1-1.1-0.3-1.1-1.2
		C221.1,90.1,221,79.6,221,69.1z M237.1,58.5c0,2.5,0,5,0,7.6c0,0.6,0.1,0.9,0.8,0.9c3.1,0,6.2,0,9.4,0c3.6-0.1,6.3-2.3,7.1-5.8
		c0.2-1,0.3-2,0.2-3c0-4.9-3.1-8-8-8.1c-2.9,0-5.8,0-8.6,0c-0.9,0-1,0.3-0.9,1C237.1,53.5,237.1,56,237.1,58.5z"/>
	<path class="st0" d="M357,66.5c-2.1-2.5-4.2-5.1-6.6-7.5c-2.7-2.7-5.5-5.2-8.6-7.4c-0.7-0.5-1-1-1-1.8c0.1-4,0.1-7.9,0-11.9
		c0-1,0.2-1.3,1.2-1.3c8.6,0,17.3-0.1,25.9,0.1c7,0.1,13.3,2.2,18.2,7.4c8,8.4,7.6,25.7-5.8,32.5c-1.3,0.7-1.3,0.7-0.5,1.9
		c4.8,7.4,9.5,14.7,14.3,22.1c0.2,0.3,0.3,0.5,0.5,0.9c-1.1,0.4-2.1,0.4-3.2,0.5c-4.3,0.4-8.7,0.3-13-0.2c-0.8-0.1-1.3-0.3-1.8-1
		c-3.9-6.1-7.9-12.1-11.8-18.2c-0.2-0.3-0.4-0.5-0.4-0.8c-1.4-5.6-4.1-10.4-7.4-15C357.1,66.7,357,66.6,357,66.5
		c0.3-0.2,0.8-0.1,1.1-0.1c3,0,6,0,9,0c1.8,0,3.4-0.5,4.8-1.5c2.7-1.9,3.8-5.7,2.7-9.4c-0.9-3.1-3.4-5.3-6.8-5.4
		c-3.4-0.1-6.9,0-10.3-0.1c-0.8,0-0.7,0.5-0.7,0.9c0,2.8,0,5.7,0,8.5C356.9,61.8,356.8,64.1,357,66.5z"/>
	<path class="st0" d="M426.4,75.9c0,8.2,0,16.4,0,24.6c0,1.1-0.4,1.3-1.3,1.4c-4.5,0.5-9.1,0.5-13.6,0c-0.9-0.1-1.2-0.4-1.2-1.3
		c0-16.4,0-32.8,0.1-49.2c0-1.2-0.3-1.4-1.4-1.4c-5,0.1-10,0-15,0.1c-0.9,0-1.3-0.2-1.4-1.2c-0.5-3.7-0.5-7.5,0-11.2
		c0.1-0.8,0.4-1,1.2-1c9.7,0,19.4,0,29,0c6.7,0,13.4,0,20.2,0c0.9,0,1.2,0.3,1.3,1.1c0.5,3.7,0.5,7.5,0,11.2
		c-0.1,0.8-0.4,1.1-1.3,1.1c-5.1-0.1-10.2,0-15.2-0.1c-1.1,0-1.3,0.3-1.3,1.3C426.4,59.5,426.4,67.7,426.4,75.9z"/>
	<path class="st0" d="M124.3,69.1c0-10.4,0-20.9,0-31.3c0-0.9,0.2-1.2,1.1-1.3c4.6-0.5,9.2-0.5,13.9,0c0.8,0.1,1.1,0.3,1.1,1.2
		c0,16.4,0,32.9-0.1,49.3c0,1.1,0.3,1.4,1.4,1.4c8.1,0,16.2,0,24.4,0c0.9,0,1.2,0.3,1.3,1.2c0.5,3.7,0.5,7.5,0,11.2
		c-0.1,0.7-0.3,1-1.1,1c-13.7,0-27.4,0-41,0c-0.9,0-0.9-0.4-0.9-1.1C124.3,90.1,124.3,79.6,124.3,69.1z"/>
	<path class="st1" d="M291.2,42.6c-1.5,0.7-3,1.2-4.5,2c-4.6,2.4-8.1,5.9-10.1,10.8c-4.6-3.7-8.9-7.8-13.2-11.8
		c-8.3-7.8-16.3-16-24.5-24c-0.4-0.4-0.8-0.8-1.3-1.2c0.3-0.2,0.5-0.1,0.8,0c18,6.7,35.5,14.6,52.4,23.8
		C291,42.4,291.1,42.5,291.2,42.6z"/>
	<path class="st0" d="M303,92.4c-0.2-0.1-0.3-0.1-0.5-0.2c0.2-0.3,0.5-0.2,0.7,0C303.1,92.3,303,92.4,303,92.4z"/>
	<path class="st0" d="M285.2,79.5c0.2,0.1,0.3,0.3,0.1,0.4c-0.1,0.1-0.2-0.1-0.3-0.2C285,79.7,285.1,79.6,285.2,79.5z"/>
</g>
<g class="st2">
	<line class="st3" x1="441" y1="41" x2="644" y2="173"/>
	<line class="st3" x1="456" y1="25" x2="659" y2="157"/>
	<line class="st3" x1="393.5" y1="84.5" x2="596.5" y2="216.5"/>
	<line class="st3" x1="421.5" y1="55.5" x2="624.5" y2="187.5"/>
	<line class="st3" x1="368.5" y1="108.5" x2="571.5" y2="240.5"/>
	<line class="st3" x1="621.8" y1="99.9" x2="384.9" y2="150.2"/>
	<line class="st3" x1="596.3" y1="65.4" x2="359.4" y2="115.7"/>
</g>
</svg>
