<svg width="344" height="68" viewBox="0 0 344 68" fill="none" xmlns="http://www.w3.org/2000/svg">
<g clip-path="url(#clip0)">
<path fill-rule="evenodd" clip-rule="evenodd" d="M25.9852 0.980711C28.2025 -0.327031 31.7979 -0.326777 34.0148 0.980711L55.9852 13.9385C58.2025 15.2463 60 18.4141 60 21.0056V46.9944C60 49.5897 58.2021 52.754 55.9852 54.0615L34.0148 67.0193C31.7975 68.327 28.2021 68.3268 25.9852 67.0193L4.0148 54.0615C1.79749 52.7537 0 49.5859 0 46.9944V21.0056C0 18.4103 1.79792 15.246 4.0148 13.9385L25.9852 0.980711Z" fill="black" fill-opacity="0.33"/>
<path fill-rule="evenodd" clip-rule="evenodd" d="M56.0148 67.0193C53.7975 68.327 50.2021 68.3268 47.9852 67.0193L26.0148 54.0615C23.7975 52.7537 22 49.5859 22 46.9944V21.0056C22 18.4103 23.7979 15.246 26.0148 13.9385L47.9852 0.980713C50.2025 -0.327034 53.7979 -0.326775 56.0148 0.980713L77.9852 13.9385C80.2025 15.2463 82 18.4141 82 21.0056V46.9944C82 49.5897 80.2021 52.754 77.9852 54.0615L56.0148 67.0193Z" fill="black" fill-opacity="0.66"/>
<path d="M41 5.10059L55.9852 13.9386C58.2025 15.2464 60 18.4142 60 21.0057V46.9945C60 49.5898 58.2021 52.7541 55.9852 54.0616L41 62.8996L26.0148 54.0616C23.7975 52.7538 22 49.586 22 46.9945V21.0057C22 18.4104 23.7979 15.2461 26.0148 13.9386L41 5.10059Z" fill="black"/>
<path d="M125.499 51L115.489 15.9902H120.494L128.258 43.8467L135.997 15.9902H141.002L148.741 43.8467L156.505 15.9902H161.51L151.5 51H146.007L138.512 24.7549L130.992 51H125.499ZM186.017 15.9902L199.518 51H194.513L191.412 42.9434H175.616L172.516 51H167.511L181.012 15.9902H186.017ZM177.521 37.9385H189.483L183.526 22.5088L177.521 37.9385ZM208.839 15.9902L219.02 32.3477L229.225 15.9902H235.035L221.534 37.1084V51H216.529V37.1084L203.028 15.9902H208.839ZM250.069 20.9951V25.5117H245.064V20.9951C245.064 20.3115 245.195 19.6686 245.455 19.0664C245.715 18.4479 246.074 17.9189 246.529 17.4795C246.985 17.0238 247.514 16.6657 248.116 16.4053C248.735 16.1286 249.386 15.9902 250.069 15.9902H265.914C266.598 15.9902 267.241 16.1286 267.843 16.4053C268.461 16.6657 268.99 17.0238 269.43 17.4795C269.885 17.9189 270.243 18.4479 270.504 19.0664C270.781 19.6686 270.919 20.3115 270.919 20.9951V27.3916C270.919 28.0752 270.854 28.6855 270.724 29.2227C270.593 29.7598 270.382 30.248 270.089 30.6875C269.812 31.1107 269.454 31.4932 269.015 31.835C268.575 32.1768 268.038 32.5023 267.403 32.8115L250.069 40.9414V45.9951H266.549V41.5029H271.554V51H245.064V41.7959C245.064 41.1123 245.13 40.502 245.26 39.9648C245.406 39.4277 245.618 38.9476 245.895 38.5244C246.171 38.1012 246.529 37.7188 246.969 37.377C247.424 37.0189 247.953 36.6934 248.556 36.4004L265.914 28.2461V20.9951H250.069ZM307.877 32.7383C308.609 32.9661 309.277 33.2917 309.879 33.7148C310.481 34.138 310.994 34.6833 311.417 35.3506C311.84 36.0016 312.166 36.7747 312.394 37.6699C312.621 38.5651 312.735 39.5905 312.735 40.7461V42.5039C312.735 48.168 309.903 51 304.239 51H285.074V15.9902H303.238C308.902 15.9902 311.734 18.8304 311.734 24.5107V25.1455C311.734 27.1149 311.417 28.7262 310.782 29.9795C310.164 31.2165 309.195 32.1361 307.877 32.7383ZM289.981 35.7412V46.0928H304.093C305.411 46.0928 306.363 45.7835 306.949 45.165C307.535 44.5465 307.828 43.5781 307.828 42.2598V39.5498C307.828 38.2152 307.535 37.2467 306.949 36.6445C306.363 36.0423 305.411 35.7412 304.093 35.7412H289.981ZM289.981 20.8975V30.8584H303.434C304.638 30.8096 305.501 30.484 306.021 29.8818C306.559 29.2633 306.827 28.3193 306.827 27.0498V24.7549C306.827 23.4202 306.534 22.4437 305.948 21.8252C305.362 21.2067 304.41 20.8975 303.092 20.8975H289.981ZM333.238 15.9902V51H328.233V20.9951H322.228V15.9902H333.238Z" fill="black"/>
</g>
<defs>
<clipPath id="clip0">
<path d="M0 0H344V68H0V0Z" fill="white"/>
</clipPath>
</defs>
</svg>
