<svg width="44" height="44" viewBox="0 0 44 44" fill="none" xmlns="http://www.w3.org/2000/svg">
<path fill-rule="evenodd" clip-rule="evenodd" d="M22 44C34.1503 44 44 34.1503 44 22C44 9.84973 34.1503 0 22 0C9.84973 0 0 9.84973 0 22C0 34.1503 9.84973 44 22 44ZM33.5607 16.0607C34.1465 15.4749 34.1465 14.5251 33.5607 13.9393C32.9749 13.3536 32.0251 13.3536 31.4393 13.9393L18.5 26.8787L13.0607 21.4393C12.4749 20.8536 11.5251 20.8536 10.9393 21.4393C10.3535 22.0251 10.3535 22.9749 10.9393 23.5607L17.4393 30.0607C18.0251 30.6464 18.9749 30.6464 19.5607 30.0607L33.5607 16.0607Z" fill="#FEDA22"/>
</svg>
