<svg width="30" height="29" viewBox="0 0 30 29" fill="none" xmlns="http://www.w3.org/2000/svg">
<path d="M28.3438 0H1.65625C0.74125 0 0 0.715884 0 1.59957V27.375C0 28.2575 0.74125 28.9734 1.65625 28.9734H16.025V17.7534H12.115V13.3809H16.025V10.1564C16.025 6.41398 18.3913 4.37619 21.8488 4.37619C23.505 4.37619 24.9275 4.4957 25.3425 4.54882V8.46023L22.945 8.46144C21.065 8.46144 20.7013 9.3246 20.7013 10.5898V13.3821H25.185L24.6012 17.7547H20.7013V28.9734H28.3463C29.2588 28.9734 30 28.2575 30 27.3738V1.59957C30 0.715884 29.2587 0 28.3438 0V0Z" fill="#FF8379"/>
</svg>
