<svg xmlns="http://www.w3.org/2000/svg" viewBox="0 0 197.09 200.17"><defs><style>.cls-1{isolation:isolate;}.cls-2{fill:#e9564f;}.cls-3{fill:#fff;}.cls-4{fill:#e7862b;}.cls-5{fill:#8dd5e3;}.cls-6{fill:#231f20;}.cls-7{fill:#fcd83e;}.cls-17,.cls-8,.cls-9{fill:none;}.cls-14,.cls-17,.cls-8{stroke:#231f20;}.cls-8,.cls-9{stroke-linecap:round;stroke-linejoin:round;stroke-width:4px;}.cls-9{stroke:#000;}.cls-10{mix-blend-mode:darken;}.cls-11{fill:#bd3837;}.cls-12{fill:#b76528;}.cls-13{mix-blend-mode:color-dodge;}.cls-14{fill:#ef4136;stroke-width:3px;}.cls-14,.cls-15,.cls-17{stroke-miterlimit:10;}.cls-15{fill:#ebc53e;stroke:#ebc43b;}.cls-16{fill:#eb8924;}.cls-17{stroke-width:2px;}</style></defs><title>Asset 16</title><g class="cls-1"><g id="Layer_2" data-name="Layer 2"><g id="Layer_1-2" data-name="Layer 1"><path class="cls-2" d="M134.1,41.75A11.85,11.85,0,0,1,129.82,40,29.45,29.45,0,0,0,125,37.71a24.22,24.22,0,0,0-10-1.28c-1.62.14-3.87.19-5.09,1.42-1.5,1.49-.62,3.88-.34,5.68.57,3.61,1,7.25,1.17,10.89.11,1.78.17,3.56.2,5.33s-.3,4,.7,5.54,2.7,2.2,4.17,3c1.79,1,3.88,2.35,5.74.66,1.17-1.06,1.76-2.83,2.47-4.21l2.7-5.21,5.18-10a8,8,0,0,0,1.2-3,3.25,3.25,0,0,0-1.52-3,26.18,26.18,0,0,0-5.26-2.29,62.43,62.43,0,0,0-11.39-3.07c-1.77-.31-3.7,1.1-3.08,3.07a58.94,58.94,0,0,1,2.63,13.47,60.22,60.22,0,0,1,.1,7c-.1,2.3.2,4.24,2.57,5.21A2.51,2.51,0,0,0,120,65.79q4.53-7.28,8.6-14.8c.72-1.33,1.4-2.66.84-4.18-.5-1.35-1.76-1.93-3-2.48a48.65,48.65,0,0,0-8.37-2.87c-1.7-.41-3.78,1.2-3.07,3.08a45,45,0,0,1,2.89,14.09c.1,2.69,4.35,3.56,4.91.67l1-5.2.45-2.37c.09-.46.2-.94.27-1.41.16-1.1.12.27-1.11.11l-1.27-.34.2.15a2.51,2.51,0,0,0,3.42-.9,2.57,2.57,0,0,0-.9-3.42,2.92,2.92,0,0,0-3.6.26,5.48,5.48,0,0,0-1.7,3.52L118,58l4.91.66a49.57,49.57,0,0,0-3.07-15.42l-3.08,3.07a48.42,48.42,0,0,1,4.73,1.4c.7.25,1.41.52,2.1.82l1,.44.42.2c.38.22.38.19,0-.11l-.34-1.26c.12-.21.11-.19,0,.07s-.15.28-.23.42l-.56,1c-.38.7-.76,1.39-1.15,2.08q-1.09,2-2.22,3.93-2.32,4-4.78,7.95l2.83-1.15-.25-.1,1.11.65c.35.3.19.91.19.13,0-.51,0-1,.07-1.53,0-.93,0-1.87,0-2.8a60,60,0,0,0-.39-6.27,65.71,65.71,0,0,0-2.56-12.25L113.61,43a62.25,62.25,0,0,1,8.17,2c1.3.41,2.59.86,3.86,1.36.57.22,1.14.45,1.71.7l.83.37.53.25c.27.15.19.06-.24-.26l-.34-1.26,0,.44.34-1.26c-1.55,3.55-3.58,7-5.36,10.41l-2.7,5.21-1.24,2.39A15.91,15.91,0,0,1,118,65.45l1.1-.65v0l1.26.34c-1.12-.54-2.18-1.2-3.26-1.81-.31-.17-1.1-.44-1.29-.74.25.38.14-.86.14-.88,0-2.42-.07-4.85-.22-7.27s-.36-4.83-.66-7.24q-.24-2-.54-4a24.57,24.57,0,0,1-.49-3.29l-.34,1.27.12-.26-.89.9a6.26,6.26,0,0,1,2.06-.35,21.66,21.66,0,0,1,2.79-.06,19.2,19.2,0,0,1,5,.9c3.46,1.07,6.31,3.78,10,4.3a2.58,2.58,0,0,0,3.07-1.75,2.51,2.51,0,0,0-1.75-3.07Z"/><path class="cls-3" d="M189.89,64.08c-2.65-6.67-4.78-13.65-3.16-20.81.83-3.65,2.21-7.31,2.67-11.09.57-4.62,0-10.61-2.22-14.78a5.46,5.46,0,0,0-3.07-2.71c-4.08-1.21-9.31.7-13.14,2.11-6.16,2.26-11.49,5.85-16.8,9.64A117.92,117.92,0,0,0,140.5,37.49a69.1,69.1,0,0,0-8.62,10.09,57.88,57.88,0,0,0-5.18,9.23l2,.28a8.79,8.79,0,0,1,7,5.07,5.1,5.1,0,0,0,1.47,2.39,3.82,3.82,0,0,0,2.06.44,48.92,48.92,0,0,0,11.06-1.06A39.3,39.3,0,0,1,158,62.62c2.61,0,5.4.81,7,2.88s2.61,5.11,5,4.66,3.22-4.46,5.58-4,2.75,4.92,5,4.33a2.44,2.44,0,0,0,1.2-.86c1.05-1.21,1.73-2.71,2.83-3.88s2.86-2,4.3-1.27Z"/><path class="cls-4" d="M55.33,183.88C71.7,194.06,95.17,201,114,197c11.13-2.33,21-6,30.44-12.32,9.13-6.09,18.25-15,25.74-23,11.28-12.08,18.08-27.89,21.08-44.14s6.64-34.13.27-49.38c-.56-1.35-1.14-2.72-1.68-4.1l-.91.36c-1.44-.7-3.2.1-4.3,1.27s-1.78,2.67-2.83,3.88a2.44,2.44,0,0,1-1.2.86c-2.29.59-2.72-3.91-5-4.33s-3.22,3.59-5.58,4-3.5-2.74-5-4.66-4.39-2.91-7-2.88a39.3,39.3,0,0,0-7.73,1.31A48.92,48.92,0,0,1,139.25,65a3.82,3.82,0,0,1-2.06-.44,5.1,5.1,0,0,1-1.47-2.39,8.79,8.79,0,0,0-7-5.07l-2-.28a104,104,0,0,0-6,18c-1.42,5.79-2.36,11.13-3,15.14-1,6-2.56,12.9-3.36,20.34-1.55,14.55,5,29.23,6.29,43.8.38,4.16.28,8.53-1.6,12.26s-5.89,5-10,6.07l-1.38.29c-6,.49-11.14.88-16.8-1.05s-10.7-7-10.71-12.93a3.21,3.21,0,0,1,.27-1.47c.52-1,1.84-1.35,3-1.44,2.79-.21,5.59.21,8.37,0s5.72-1.28,7.19-3.65a21.43,21.43,0,0,0,1.67-4.73c1.36-4.07,4.55-7.22,6.77-10.89a8.13,8.13,0,0,1-4.42-1.83c-1.56-1-3-2.31-4.86-2.77l-1.4-1a42.56,42.56,0,0,1-3.51,4.51c-3,3.19-7.45,5.62-11.6,4.31-2.57-.81-4.5-2.88-6.7-4.45a19.47,19.47,0,0,0-18.4-2.36,8.58,8.58,0,0,1-1.6.9l-.66.24a16.5,16.5,0,0,1,2.26-1.14c4.12-3,5.26-9.33,9.08-13,3.61-3.51,9.19-4.28,14-5.86l-.06-.2a6.93,6.93,0,0,1-1.36-1.57c-.81-1.15-1.94-2-2.73-3.2a5.79,5.79,0,0,1-1-4l0-.8a35.88,35.88,0,0,1-6.31-.16,15,15,0,0,1-4.59-1.3c-3.09-1.48-5.5-4.21-8.68-5.47a14.35,14.35,0,0,0-5.64-.87v-.2A170.5,170.5,0,0,1,28.88,80.07c-3.86-3.64-7.15-6.5-10.57-10.2l-.68-.38h0a36.53,36.53,0,0,0-3.08,7.66c-1.82,6.52-3.77,13.79-4,20.55-.56,14.09-1.18,25.38,3.93,41.09,1.53,4.69,4.22,10.9,7.51,15a148,148,0,0,0,21,21.42A115,115,0,0,0,55.33,183.88Z"/><path class="cls-2" d="M113.45,107.15c-1.14,7.68.84,13-2.31,12.79a13.05,13.05,0,0,1-12.45-13.6c.43-7.06,6.69-11.93,14-12C116.85,94.34,114.91,97.32,113.45,107.15Zm-31.93,32.6c4.15,1.31,8.64-1.12,11.6-4.31a42.56,42.56,0,0,0,3.51-4.51,49.58,49.58,0,0,1,4.49-5.8c1.17-1.23,2.24.7,3.91,1,1,.16,2.26-2.31,2.88-1.57,2.75,3.29,1.63,8.36-.6,12s-5.41,6.82-6.77,10.89a21.43,21.43,0,0,1-1.67,4.73c-1.47,2.37-4.41,3.42-7.19,3.65s-5.58-.2-8.37,0c-1.16.09-2.48.4-3,1.44a3.21,3.21,0,0,0-.27,1.47c0,6,5.06,11,10.71,12.93s10.84,1.54,16.8,1.05l1.38-.29c4.14-1,8.16-2.34,10-6.07s2-8.1,1.6-12.26c-1.34-14.57-7.84-29.25-6.29-43.8.8-7.44,2.37-14.35,3.36-20.34.66-4,1.6-9.35,3-15.14l-.76-.19a5.57,5.57,0,0,1-4,4l.64,2.21a20.13,20.13,0,0,1-13.11,10.57c-4.29,1-8.78.65-13.2.7s-9.08.66-12.57,3.37l-1.43.79-.09.08c-2.81,2.29-5.18,4.93-8,7.22l-.06.54a35.88,35.88,0,0,0,6.31.16l1.1,0,11.66-.55a3.79,3.79,0,0,0,.5,4.95c-1.78,2.91-4.75,4.35-8,5.42-4.86,1.58-10.44,2.35-14,5.86-3.82,3.7-5,10.07-9.08,13a19.47,19.47,0,0,1,18.4,2.36C77,136.87,79,138.94,81.52,139.75Z"/><path class="cls-4" d="M48.89,19.43c-11.59-1.51-23-4.06-33.41-9.23-3-1.48-6-2.91-9.1-4.22-.86-.37-1.29-.72-2.44.08a2.29,2.29,0,0,0-.71,1.3c-2,6.45-1.3,12.23.26,20A68.85,68.85,0,0,0,10.13,46c2.53,4.78,6.8,9.73,11.76,11.88a19.78,19.78,0,0,0,5.84,1.34l-2.26,1.26,1.06.57A321.92,321.92,0,0,0,54.44,82.5l.39-.57c2.79-3.57,8.11-3.46,12.63-3.23s9.14.25,13.46-1.11,8.34-4.28,10-8.47c3.48-8.66-3.9-18.15-2.84-27.42a3.69,3.69,0,0,1,1.56-3c2-1,4.23,2.12,5.11,4.2,2.54,6,3.34,11.33,5.87,17.31,1.08,2.54,3.69,5.15,5.79,6.93a10,10,0,0,0,4,2.45,5.32,5.32,0,0,1,3-2.35,129.51,129.51,0,0,0-2.64-19.32c-1.3-6-3.11-12.14-7-16.93s-10.27-8-16.26-6.51l-.87-.29A5.18,5.18,0,0,0,85.23,20a9.82,9.82,0,0,0-3.78-2.13C69.89,13.6,56.81,11.66,47.94,3.11c-.9-.87-2.62-1.7-3.14-.55a1.85,1.85,0,0,0-.06,1A51.38,51.38,0,0,0,49,18.49ZM79.84,62a2,2,0,1,1,2,2A2,2,0,0,1,79.84,62Zm28.22-5.39a1.88,1.88,0,1,1,1.87,1.87A1.87,1.87,0,0,1,108.06,56.65Z"/><path class="cls-5" d="M17.63,69.49l.68.38c3.42,3.7,6.71,6.56,10.57,10.2A170.5,170.5,0,0,0,49.12,96.28v.2a14.35,14.35,0,0,1,5.64.87c3.18,1.26,5.59,4,8.68,5.47a15,15,0,0,0,4.59,1.3l.06-.54c2.83-2.29,5.2-4.93,8-7.22l-.44-.52c-7.37-4.26-14.4-8.67-21.22-13.34A321.92,321.92,0,0,1,26.53,61.09l-1.06-.57A25.57,25.57,0,0,0,17.63,69.49Z"/><path class="cls-3" d="M54.83,81.93l-.39.57c6.82,4.67,13.85,9.08,21.22,13.34l.44.52.09-.08,1.43-.79c3.49-2.71,8.16-3.32,12.57-3.37s8.91.35,13.2-.7A20.13,20.13,0,0,0,116.5,80.85l-.64-2.21a4.68,4.68,0,0,1-1.07.12,5.63,5.63,0,0,1-5.33-5.88,6.34,6.34,0,0,1,.93-3.32,10,10,0,0,1-4-2.45c-2.1-1.78-4.71-4.39-5.79-6.93-2.53-6-3.33-11.34-5.87-17.31-.88-2.08-3.1-5.24-5.11-4.2a3.69,3.69,0,0,0-1.56,3C87.05,51,94.43,60.46,91,69.12c-1.69,4.19-5.72,7.12-10,8.47S72,78.93,67.46,78.7,57.62,78.36,54.83,81.93Z"/><path class="cls-3" d="M74.37,105.08a5.79,5.79,0,0,0,1,4c.79,1.16,1.92,2,2.73,3.2a6.93,6.93,0,0,0,1.36,1.57l.06.2c3.3-1.07,6.27-2.51,8-5.42a3.79,3.79,0,0,1-.5-4.95l-11.66.55-1.1,0Z"/><path class="cls-6" d="M81.82,60.05a2,2,0,1,0,2,2A2,2,0,0,0,81.82,60.05Z"/><path class="cls-3" d="M101.12,125.13a49.58,49.58,0,0,0-4.49,5.8l1.4,1c1.81.46,3.3,1.73,4.86,2.77a8.13,8.13,0,0,0,4.42,1.83c2.23-3.66,3.35-8.73.6-12-.62-.74-1.93,1.73-2.88,1.57C103.36,125.83,102.29,123.9,101.12,125.13Z"/><path class="cls-7" d="M98.69,106.34a13.05,13.05,0,0,0,12.45,13.6c3.15.19,1.17-5.11,2.31-12.79,1.46-9.83,3.4-12.81-.75-12.79C105.38,94.41,99.12,99.28,98.69,106.34Z"/><path class="cls-6" d="M109.93,54.78a1.87,1.87,0,1,0,1.88,1.87A1.87,1.87,0,0,0,109.93,54.78Z"/><path class="cls-6" d="M110.39,69.56a6.34,6.34,0,0,0-.93,3.32,5.63,5.63,0,0,0,5.33,5.88,4.68,4.68,0,0,0,1.07-.12,5.57,5.57,0,0,0,4-4,6.32,6.32,0,0,0,.24-1.75A5.64,5.64,0,0,0,114.79,67a4.49,4.49,0,0,0-1.42.22c0,.41.06.82.08,1.23l-.59.45A2.79,2.79,0,0,1,110.39,69.56Z"/><path class="cls-6" d="M113.37,67.21a5.32,5.32,0,0,0-3,2.35,2.79,2.79,0,0,0,2.47-.67l.59-.45C113.43,68,113.41,67.62,113.37,67.21Z"/><path class="cls-8" d="M65.94,21.1c-5.67-.43-11.39-.93-17-1.67-11.59-1.51-23-4.06-33.41-9.23-3-1.48-6-2.91-9.1-4.22-.86-.37-1.29-.72-2.44.08a2.29,2.29,0,0,0-.71,1.3c-2,6.45-1.3,12.23.26,20A68.85,68.85,0,0,0,10.13,46c2.53,4.78,6.8,9.73,11.76,11.88a19.78,19.78,0,0,0,5.84,1.34l2,.18a17.18,17.18,0,0,0,12.48-3.65"/><path class="cls-8" d="M51.1,31.22c-6.4-.12-12.35-.07-18.74-1.26-1.2-.22-2.32-.73-3.5-1-.33-.09-.5-.19-.87.16a.91.91,0,0,0-.19.51C27.42,32,28,34.06,29,36.76a24.87,24.87,0,0,0,3.38,6.38,9.68,9.68,0,0,0,4.86,3.66,15.89,15.89,0,0,0,2.83.45"/><path class="cls-8" d="M25.47,60.52a25.57,25.57,0,0,0-7.84,9h0a36.53,36.53,0,0,0-3.08,7.66c-1.82,6.52-3.77,13.79-4,20.55-.56,14.09-1.18,25.38,3.93,41.09,1.53,4.69,4.22,10.9,7.51,15a148,148,0,0,0,21,21.42,115,115,0,0,0,12.41,8.69C71.7,194.06,95.17,201,114,197c11.13-2.33,21-6,30.44-12.32,9.13-6.09,18.25-15,25.74-23,11.28-12.08,18.08-27.89,21.08-44.14s6.64-34.13.27-49.38c-.56-1.35-1.14-2.72-1.68-4.1-2.65-6.67-4.78-13.65-3.16-20.81.83-3.65,2.21-7.31,2.67-11.09.57-4.62,0-10.61-2.22-14.78a5.46,5.46,0,0,0-3.07-2.71c-4.08-1.21-9.31.7-13.14,2.11-6.16,2.26-11.49,5.85-16.8,9.64A117.92,117.92,0,0,0,140.5,37.49a69.1,69.1,0,0,0-8.62,10.09,57.88,57.88,0,0,0-5.18,9.23,104,104,0,0,0-6,18c-1.42,5.79-2.36,11.13-3,15.14-1,6-2.56,12.9-3.36,20.34-1.55,14.55,5,29.23,6.29,43.8.38,4.16.28,8.53-1.6,12.26s-5.89,5-10,6.07l-1.38.29c-6,.49-11.14.88-16.8-1.05s-10.7-7-10.71-12.93a3.21,3.21,0,0,1,.27-1.47c.52-1,1.84-1.35,3-1.44,2.79-.21,5.59.21,8.37,0s5.72-1.28,7.19-3.65a21.43,21.43,0,0,0,1.67-4.73c1.36-4.07,4.55-7.22,6.77-10.89s3.35-8.73.6-12c-.62-.74-1.93,1.73-2.88,1.57-1.67-.27-2.74-2.2-3.91-1a49.58,49.58,0,0,0-4.49,5.8,42.56,42.56,0,0,1-3.51,4.51c-3,3.19-7.45,5.62-11.6,4.31-2.57-.81-4.5-2.88-6.7-4.45a19.47,19.47,0,0,0-18.4-2.36,16.5,16.5,0,0,0-2.26,1.14"/><path class="cls-8" d="M32.24,126.57A8.86,8.86,0,0,0,35,131.66a11.73,11.73,0,0,0,4.86,1.88,51.17,51.17,0,0,0,9.56,1.06,14.45,14.45,0,0,0,4.69-.51h0l.66-.24a8.58,8.58,0,0,0,1.6-.9c4.12-3,5.26-9.33,9.08-13,3.61-3.51,9.19-4.28,14-5.86,3.3-1.07,6.27-2.51,8-5.42a3.79,3.79,0,0,1-.5-4.95l-11.66.55-1.1,0a35.88,35.88,0,0,1-6.31-.16,15,15,0,0,1-4.59-1.3c-3.09-1.48-5.5-4.21-8.68-5.47a14.35,14.35,0,0,0-5.64-.87c-1.27,0-2.55.11-3.8.24-3.16.31-6.42.69-9.48-.19S31.39,93.06,29.76,90"/><path class="cls-8" d="M113.37,67.21a129.51,129.51,0,0,0-2.64-19.32c-1.3-6-3.11-12.14-7-16.93s-10.27-8-16.26-6.51l-.87-.29A5.18,5.18,0,0,0,85.23,20a9.82,9.82,0,0,0-3.78-2.13C69.89,13.6,56.81,11.66,47.94,3.11c-.9-.87-2.62-1.7-3.14-.55a1.85,1.85,0,0,0-.06,1A51.38,51.38,0,0,0,49,18.49"/><path class="cls-8" d="M54.83,81.93c2.79-3.57,8.11-3.46,12.63-3.23s9.14.25,13.46-1.11,8.34-4.28,10-8.47c3.48-8.66-3.9-18.15-2.84-27.42a3.69,3.69,0,0,1,1.56-3c2-1,4.23,2.12,5.11,4.2,2.54,6,3.34,11.33,5.87,17.31,1.08,2.54,3.69,5.15,5.79,6.93a10,10,0,0,0,4,2.45"/><path class="cls-8" d="M75.66,95.84c-7.37-4.26-14.4-8.67-21.22-13.34A321.92,321.92,0,0,1,26.53,61.09"/><path class="cls-8" d="M49.12,96.28A170.5,170.5,0,0,1,28.88,80.07c-3.86-3.64-7.15-6.5-10.57-10.2"/><path class="cls-8" d="M116.5,80.85a20.13,20.13,0,0,1-13.11,10.57c-4.29,1-8.78.65-13.2.7s-9.08.66-12.57,3.37l-1.43.79-.09.08c-2.81,2.29-5.18,4.93-8,7.22a.49.49,0,0,0,.48-.12"/><path class="cls-8" d="M110.39,69.56a6.34,6.34,0,0,0-.93,3.32,5.63,5.63,0,0,0,5.33,5.88,4.68,4.68,0,0,0,1.07-.12,5.57,5.57,0,0,0,4-4,6.32,6.32,0,0,0,.24-1.75A5.64,5.64,0,0,0,114.79,67a4.49,4.49,0,0,0-1.42.22A5.32,5.32,0,0,0,110.39,69.56Z"/><path class="cls-8" d="M79.84,62a2,2,0,1,0,2-2A2,2,0,0,0,79.84,62Z"/><path class="cls-8" d="M108.06,56.65a1.88,1.88,0,1,0,1.87-1.87A1.87,1.87,0,0,0,108.06,56.65Z"/><path class="cls-8" d="M98.69,106.34a13.05,13.05,0,0,0,12.45,13.6c3.15.19,1.17-5.11,2.31-12.79,1.46-9.83,3.4-12.81-.75-12.79C105.38,94.41,99.12,99.28,98.69,106.34Z"/><path class="cls-9" d="M189,64.44c-1.44-.7-3.2.1-4.3,1.27s-1.78,2.67-2.83,3.88a2.44,2.44,0,0,1-1.2.86c-2.29.59-2.72-3.91-5-4.33s-3.22,3.59-5.58,4-3.5-2.74-5-4.66-4.39-2.91-7-2.88a39.3,39.3,0,0,0-7.73,1.31A48.92,48.92,0,0,1,139.25,65a3.82,3.82,0,0,1-2.06-.44,5.1,5.1,0,0,1-1.47-2.39,8.79,8.79,0,0,0-7-5.07"/><path class="cls-8" d="M74.37,105.08a5.79,5.79,0,0,0,1,4c.79,1.16,1.92,2,2.73,3.2a6.93,6.93,0,0,0,1.36,1.57"/><path class="cls-8" d="M98,132c1.81.46,3.3,1.73,4.86,2.77a8.13,8.13,0,0,0,4.42,1.83"/><g class="cls-10"><path class="cls-11" d="M86.69,104.67l4.72.76a1.64,1.64,0,0,0,1.15-.15,1.51,1.51,0,0,0,.54-2.06,1.48,1.48,0,0,0-.89-.68l-4.72-.76a1.61,1.61,0,0,0-1.16.15,1.52,1.52,0,0,0-.69.9,1.49,1.49,0,0,0,.15,1.15,1.45,1.45,0,0,0,.9.69Z"/></g><g class="cls-10"><path class="cls-11" d="M89.65,106H87.86a1.54,1.54,0,0,0-1.06.44,1,1,0,0,0-.31.48,1.06,1.06,0,0,0-.13.58,1.46,1.46,0,0,0,.44,1.06,1.54,1.54,0,0,0,1.06.44h1.79a1.54,1.54,0,0,0,1.06-.44,1.14,1.14,0,0,0,.31-.48,1.08,1.08,0,0,0,.13-.58,1.46,1.46,0,0,0-.44-1.06,1.54,1.54,0,0,0-1.06-.44Z"/></g><g class="cls-10"><path class="cls-11" d="M106.72,118.91q-2,2.28-4.22,4.43a1.51,1.51,0,0,0,0,2.12,1.53,1.53,0,0,0,2.12,0c1.45-1.43,2.86-2.91,4.22-4.42a1.58,1.58,0,0,0,.44-1.06,1.5,1.5,0,0,0-2.56-1.07Z"/></g><g class="cls-10"><path class="cls-11" d="M109.91,120.7c-.57,1.76-1.08,3.55-1.52,5.34a1.5,1.5,0,1,0,2.89.8q.66-2.7,1.52-5.34a1.52,1.52,0,0,0-1-1.85,1.54,1.54,0,0,0-1.84,1Z"/></g><g class="cls-10"><path class="cls-12" d="M44.32,92.24c-8.19-6.9-15.1-15.32-23.51-22-3-2.37-7.27,1.85-4.24,4.25,8.41,6.66,15.32,15.08,23.51,22,2.93,2.47,7.2-1.75,4.24-4.25Z"/></g><g class="cls-10"><path class="cls-11" d="M65,129.34c2.62-3.92,4.84-7.1,9.52-8.78,3.57-1.28,7.79-2.1,10.85-4.45s0-7.54-3-5.18c-3.72,2.86-8.93,3.19-13.07,5.29-4.35,2.21-6.85,6.2-9.45,10.1-2.15,3.22,3,6.23,5.18,3Z"/></g><g class="cls-10"><path class="cls-11" d="M114.49,83.86a22.18,22.18,0,0,1-8.61,6.54c-3.86,1.61-8,1.81-12.15,2s-8.29.57-12.17,2.24a43.17,43.17,0,0,0-9.88,6.44,2,2,0,0,0,0,2.83,2.05,2.05,0,0,0,2.83,0,34.84,34.84,0,0,1,9.74-6.07c3.94-1.41,8.19-1.33,12.31-1.61a32.92,32.92,0,0,0,12-2.69,25,25,0,0,0,8.81-6.9,2,2,0,0,0,0-2.82,2,2,0,0,0-2.83,0Z"/></g><g class="cls-10"><path class="cls-11" d="M118.5,153.07a37,37,0,0,1-1.52,8.21,7.64,7.64,0,0,1-5,6.31c-3.58,1.79-7.51,1.7-11.41,1.69-3.53,0-7-.21-10.09-2a13.34,13.34,0,0,1-4.33-3.6,10.18,10.18,0,0,1-2.3-5.77c0-1.93-3-1.94-3,0,.23,8.8,9.2,14,17.07,14.34,7.22.35,18,.27,21.21-7.75a36,36,0,0,0,1.65-6.4,30.5,30.5,0,0,0,.73-5c0-1.93-3-1.93-3,0Z"/></g><g class="cls-10"><path class="cls-12" d="M58.47,131.49c-3.71,4.56-9.57,3.44-14.7,2.93-2.65-.26-5.38-.45-7.72-1.85-1.84-1.1-3.23-2.9-2.08-5,1.23-2.26-2.22-4.28-3.46-2a8,8,0,0,0-1,4.48,7.76,7.76,0,0,0,2.21,4.19c2.5,2.8,6.48,3.61,10,4,6.7.73,14.64,2.06,19.5-3.92a2,2,0,0,0,0-2.82,2,2,0,0,0-2.83,0Z"/></g><g class="cls-10"><path class="cls-11" d="M109.19,38.45c3,9.11,4.1,18.65,5.22,28.14.22,1.89,3.22,1.92,3,0-1.15-9.75-2.24-19.58-5.33-28.94-.6-1.83-3.5-1-2.89.8Z"/></g><g class="cls-10"><path class="cls-11" d="M132.51,40.67a16,16,0,0,0-4,5.46c-1.18,2.18-2.34,4.38-3.42,6.61A78.65,78.65,0,0,0,119.6,67a1.5,1.5,0,0,0,2.89.8,73.7,73.7,0,0,1,5-13.15c1-2,2-3.92,3-5.86s1.89-4.22,3.58-5.53a1.54,1.54,0,0,0,.54-2,1.51,1.51,0,0,0-2.05-.54Z"/></g><g class="cls-10"><path class="cls-11" d="M122.25,68.14A4.51,4.51,0,0,0,121,65.5a8.54,8.54,0,0,0-1.78-1.5,9.27,9.27,0,0,0-4.45-1.47,1.5,1.5,0,1,0,0,3l.24,0c.11,0,.33.08-.07,0l.42.08a7.75,7.75,0,0,1,.83.21l.45.17c.18.06-.28-.13-.1,0l.22.1a8.78,8.78,0,0,1,.79.44l.36.23.15.11c.26.19-.18-.15,0,0s.46.4.67.61l.28.32c.16.19,0,.07,0,0a.7.7,0,0,0,.1.16,1.06,1.06,0,0,1,.12.2l0,.09q.08.15-.06-.15a.55.55,0,0,0,.06.18c0,.11,0,.4,0,0a1.58,1.58,0,0,0,.43,1.06,1.51,1.51,0,0,0,2.57-1.06Z"/></g><g class="cls-10"><path d="M135.31,39.86c-8.18-4.64-18.25-8.27-27.2-3.39-1.69.92-.18,3.51,1.52,2.59,7.92-4.32,17-.68,24.17,3.39a1.5,1.5,0,0,0,1.51-2.59Z"/></g><g class="cls-13"><path class="cls-3" d="M47.45,30.06a80.1,80.1,0,0,1-8.48.21c-2.64-.19-5.22-1.35-7.89-1.71-3.79-.51-4.78,4.53-2.83,6.83a3.54,3.54,0,0,0,1.07.93c1.21.5,1.28.53.2.09a50,50,0,0,1,2.8,4.33,19,19,0,0,0,5.06,5.76c4.25,2.93,8.24-4,4-6.91a19.86,19.86,0,0,1-5.13-5.21c-2.38-3.5-9-1.42-7.32,3.08,1.6,4.19,6.07,10.89,11.35,10,2.69-.43,4.26-2.49,5.54-4.71,1-1.74,1.72-4.33,3.61-5.27,4.6-2.3.55-9.21-4-6.91-2.8,1.4-4.28,4.07-5.71,6.72a10.39,10.39,0,0,0-.95,1.76l-.48.78c1.85.34,2.38.21,1.61-.4C39.37,38,37.31,37,36.69,35.33l-7.31,3.08a30.48,30.48,0,0,0,8,8.09l4-6.91c-1.83-1.26-3.1-4.3-4.29-6.14a18.33,18.33,0,0,0-2-3,8.1,8.1,0,0,0-1.22-.89c-1.29-.58-1.28-.53,0,.14l-2.83,6.83c2.72.36,5.09,1.57,7.89,1.71s5.67-.12,8.48-.21c5.13-.18,5.15-8.18,0-8Z"/><path class="cls-3" d="M39.39,48.07c-4.68,0-8.61-5.22-10.48-9.46l-.29-.42.09,0c-.07-.17-.14-.34-.2-.51a4.48,4.48,0,0,1-.32-1.56c-.12-.13-.23-.25-.34-.39A5.42,5.42,0,0,1,27.39,30a3.56,3.56,0,0,1,3.76-1.89,28.6,28.6,0,0,1,3.69.84,21.38,21.38,0,0,0,4.17.87,42.82,42.82,0,0,0,5.88-.09l2.54-.12h0a4,4,0,0,1,4.26,3.27c.23.6,1.16-.95,1,0-.33,1.38-1,2.26-2.59,5.24-.65,1.22-1.37,1.86-2.49,3.56-.33.5-1,1-1.26,1.42-1.26,2.19-2.95,4.48-5.9,5A6.87,6.87,0,0,1,39.39,48.07Zm-1.33-1.74A2.9,2.9,0,0,0,42,45.27a3.74,3.74,0,0,0-.4-4.93Zm4-6.87a4.71,4.71,0,0,1,.7,6.38l-.05.08a11.3,11.3,0,0,0,2.7-3.39c.25-.44.49-.94.74-1.46a15.15,15.15,0,0,1,1.39-2.52h-.1c-.8,0-1.6.06-2.41.11-1.25.06-2.53.12-3.8.14a3.47,3.47,0,0,0,.43.35l0,0,.38.26ZM31.32,38.14c.18.29.35.58.52.87.3.49.6,1,.9,1.45a19.45,19.45,0,0,0,4.49,5.31l3.1-5.31a4.59,4.59,0,0,1-2.13-.11l-.71-.13.81-1.35a.78.78,0,0,0,.05-.14,22.39,22.39,0,0,1-3.94-.88c-.48-.13-1-.28-1.45-.4Zm-1.18.5q.72,1,1.5,2c-.22-.35-.44-.71-.65-1.07l-.6-1ZM40.72,39.7a.64.64,0,0,0,0,.07l0,0Zm-1.62-.21.29,0a1.91,1.91,0,0,0-.15-.28Zm1.26-1.68c1.54,0,3.11-.07,4.64-.14.81,0,1.62-.09,2.43-.11a3.47,3.47,0,0,0,3.37-3.79,3.07,3.07,0,0,0-.08-.67,4.18,4.18,0,0,0-1.53-1.88,3.43,3.43,0,0,0-3.54-.17c-2.73,1.36-4.19,4.09-5.48,6.5A2.48,2.48,0,0,0,40.36,37.81Zm-11-.82c0,.1.06.19.1.29l.19.48.21-.08C29.68,37.44,29.51,37.21,29.34,37Zm5.1-.17.25.07a23.24,23.24,0,0,0,3.12.76A7.53,7.53,0,0,1,36.44,36Zm-3.79.27a2.14,2.14,0,0,0,.13.19l.46-.19-.22,0-.32,0Zm4.78-7h0a11.19,11.19,0,0,1,1.62,2.27c.17.28.33.56.5.81.33.51.67,1.12,1,1.75s.63,1.12,1,1.67c1.15-2.12,2.47-4.4,4.69-5.88a40.78,40.78,0,0,1-5.3.05A19.13,19.13,0,0,1,35.43,30.1Zm-3.64,6.06c.37.07.73.15,1.09.24L36.13,35l-.26-.37a3.59,3.59,0,0,0-2.82-1.54Zm-1.34.11.17.09,1.31-3.16a4.25,4.25,0,0,0-1.12.39,2.75,2.75,0,0,0-1.58,2.07,2.84,2.84,0,0,0,.34.22l.57.24.32.13Zm3-4.11A4.53,4.53,0,0,1,36.7,34.1c.34.49.69,1,1.06,1.42l-.06-.1c-.35-.62-.67-1.2-1-1.7-.17-.26-.34-.54-.52-.84a10.36,10.36,0,0,0-1.44-2.05l-.57-.45ZM30.55,29a2.5,2.5,0,0,0-2.28,1.4,4.51,4.51,0,0,0,.15,4.35,4,4,0,0,1,1.93-2.07,5.28,5.28,0,0,1,2-.56l.9-2.18c-.57-.3-.82-.46-.87-.65-.46-.11-.92-.19-1.38-.26Z"/></g><path class="cls-3" d="M149.72,148.52l11,8.84L159,159.57l-4.79-3.84-3.78,4.71,4.79,3.84-1.77,2.2-11-8.84,1.77-2.2,4.46,3.58,3.78-4.71-4.46-3.58Z"/><path class="cls-3" d="M158.67,143.62a3.62,3.62,0,0,1,2.27-.22L159,142.15l1.53-2.35,9.29,6-1.53,2.34-2-1.26a3.58,3.58,0,0,1,.73,2.16,4.2,4.2,0,0,1-.75,2.38,4.82,4.82,0,0,1-1.94,1.74,4.57,4.57,0,0,1-2.61.39,7.6,7.6,0,0,1-5.08-3.3,4.61,4.61,0,0,1-.69-2.55,4.67,4.67,0,0,1,.8-2.48A4.29,4.29,0,0,1,158.67,143.62Zm.25,4.5a3.34,3.34,0,0,0,1.54,2,3.25,3.25,0,0,0,2.4.61,3,3,0,0,0,2.29-3.55,3.23,3.23,0,0,0-1.49-2,3.31,3.31,0,0,0-2.43-.59,2.8,2.8,0,0,0-1.88,1.3A2.74,2.74,0,0,0,158.92,148.12Z"/><path class="cls-3" d="M166.46,130.78a5.09,5.09,0,0,1,3.63,0l-1.44,2.61a2.36,2.36,0,0,0-1.62,0,2.54,2.54,0,0,0-1.23,1.18,2.41,2.41,0,0,0-.18,2,4.32,4.32,0,0,0,4.26,2.36,2.44,2.44,0,0,0,1.63-1.24,2.56,2.56,0,0,0,.34-1.66,2.37,2.37,0,0,0-.82-1.39l1.44-2.61a5.09,5.09,0,0,1,1.9,3.09,5.54,5.54,0,0,1-.72,3.69,5.88,5.88,0,0,1-2,2.19,4.92,4.92,0,0,1-2.68.76,6.88,6.88,0,0,1-5.29-2.93,4.77,4.77,0,0,1-.77-2.67,6,6,0,0,1,.79-2.85A5.51,5.51,0,0,1,166.46,130.78Z"/><path class="cls-3" d="M179.84,125l-5.78,1.84,4.56,1.61-.94,2.66-14-4.94.94-2.66,7.84,2.78-3.12-5,1.12-3.15,3.64,6.24,6.84-2.65Z"/><path class="cls-3" d="M182.27,110.28a3.94,3.94,0,0,1,1,1.91,5.69,5.69,0,0,1-.09,2.64,6.63,6.63,0,0,1-1.14,2.47,4.5,4.5,0,0,1-1.89,1.48,4.2,4.2,0,0,1-2.37.25l.73-2.92a2.24,2.24,0,0,0,1.55-.32,2.15,2.15,0,0,0,.94-1.39,1.87,1.87,0,0,0-.13-1.42,1.67,1.67,0,0,0-1.06-.75,1.6,1.6,0,0,0-1.15.11,2.82,2.82,0,0,0-.91.76q-.39.51-1,1.41a17.46,17.46,0,0,1-1.37,1.89,4,4,0,0,1-1.56,1.08,3.6,3.6,0,0,1-2.22.06,3.5,3.5,0,0,1-2.47-2,6.34,6.34,0,0,1,1.73-6.82,4,4,0,0,1,3.16-.77l-.73,3a2.08,2.08,0,0,0-1.37.32,2,2,0,0,0-.82,1.26,1.89,1.89,0,0,0,.1,1.32,1.66,1.66,0,0,0,2.12.64,2.69,2.69,0,0,0,.88-.75c.26-.33.57-.78.94-1.36a20.52,20.52,0,0,1,1.41-1.93,3.82,3.82,0,0,1,1.57-1.1,3.72,3.72,0,0,1,2.28,0A3.82,3.82,0,0,1,182.27,110.28Z"/><path class="cls-3" d="M173.31,95a6.49,6.49,0,0,1,4.07-1.57l-.56,2.91a3.82,3.82,0,0,0-2,1.07,4,4,0,0,0-1.09,2.16,3.79,3.79,0,0,0,.17,2.09,3.65,3.65,0,0,0,1.31,1.67,5.45,5.45,0,0,0,2.3,1,5.39,5.39,0,0,0,2.47,0,3.75,3.75,0,0,0,1.84-1.08,3.69,3.69,0,0,0,.93-1.87,4.08,4.08,0,0,0-.21-2.42,4,4,0,0,0-1.5-1.74l.55-2.91a6.44,6.44,0,0,1,3.2,3,6.86,6.86,0,0,1,.52,4.56,7,7,0,0,1-1.57,3.33,6.18,6.18,0,0,1-3,1.88,8.67,8.67,0,0,1-7.33-1.4,6.32,6.32,0,0,1-2.06-2.83,7,7,0,0,1-.22-3.69A6.84,6.84,0,0,1,173.31,95Z"/><g class="cls-10"><path class="cls-11" d="M108.35,129.79c.68,4.19-1.16,7.59-3.51,10.89a34.36,34.36,0,0,0-2.9,4.49,29.13,29.13,0,0,0-1.73,4.79,14.13,14.13,0,0,1-1.86,4.48,6.42,6.42,0,0,1-4.12,2.44,20.82,20.82,0,0,1-11.58-1.13c-1.75-.76-3.28,1.83-1.51,2.59a24.66,24.66,0,0,0,13.11,1.57,10,10,0,0,0,5.55-2.56,12,12,0,0,0,2.75-4.82,55.58,55.58,0,0,1,1.81-5.47,34,34,0,0,1,3.43-5.37c2.72-3.87,4.23-7.92,3.46-12.7-.31-1.9-3.2-1.1-2.9.8Z"/></g><g class="cls-10"><path class="cls-12" d="M42.28,55.68c-1.29,2-2.68,4.16-5.05,5s-4.86.66-7.28.5c-1.44-.09-1.44,2.16,0,2.25,2.75.18,5.66.32,8.27-.73,2.77-1.12,4.45-3.45,6-5.89.78-1.23-1.17-2.36-1.94-1.14Z"/></g><g class="cls-10"><path class="cls-12" d="M66.47,19.11a30.52,30.52,0,0,0-9.18-2.21c-2.68-.34-5.66-.43-8.16-1.53-1.31-.58-2.46,1.36-1.14,1.94,2.59,1.14,5.47,1.37,8.25,1.71,3.06.37,6.27.72,9.1,2,1.3.6,2.45-1.34,1.13-1.94Z"/></g><path class="cls-14" d="M42.83,61.11h-.35a1.4,1.4,0,0,0-.41,0,5.91,5.91,0,0,1-1.93-.54,5,5,0,0,1-.49-.2.62.62,0,0,1-.35-.57c0-1-.2-2-.3-3,0-.45-.1-.91-.14-1.37a.37.37,0,0,1,.26-.41c1-.45,2.05-.92,3.08-1.36L43.42,53c-.58.06-1.19.08-1.8.13s-1.5.07-2.25.16c-.24,0-.49,0-.73,0a.52.52,0,0,1-.28-.11l-2.75-1.48a.65.65,0,0,1-.26-.26v-.09c.18-.74.57-1.42.78-2.16a.47.47,0,0,1,.28-.27c.59-.29,1.19-.56,1.79-.84s1.23-.57,1.82-.88a.48.48,0,0,1,.6,0c.74.55,1.5,1.07,2.23,1.64.21.16,4.37,3.36.56.4-.3-.39-.65-.88-1-1.36s-.82-1.13-1.24-1.68c-.2-.24-.2-.31,0-.56.49-.66,1-1.29,1.54-1.95a.37.37,0,0,1,.28-.15h.28c.72,0,1.43-.09,2.14-.13a1,1,0,0,1,.67.14c.77.46,1.59.85,2.36,1.32a.4.4,0,0,1,.21.46c-.06.33-.16.65-.2.9a6.24,6.24,0,0,0,.64-1.4.35.35,0,0,1,.41-.22c1,.14,1.93.24,2.89.4.21,0,.43,0,.64,0a1.24,1.24,0,0,1,.86.51,10.82,10.82,0,0,0,1.27,1.43.65.65,0,0,1,.17.83c-.32.77-.58,1.56-.87,2.34a1.08,1.08,0,0,1-.19.37c-.1.12-6.77.61-6.71.74,6.16-.95,7.56,1.56,8,2.53.13.3.29.6.41.9a1.32,1.32,0,0,1,0,1.22,18.76,18.76,0,0,1-1.42,2.2.62.62,0,0,1-.62.27c-1-.1-2-.2-3.05-.26-.56,0-1.12-.1-1.68-.13a.7.7,0,0,1-.62-.42c-.32-.64-.67-2.58-1-3.23a18.07,18.07,0,0,0,0,2.09.81.81,0,0,1-.29.87c-.72.57-1.37,1.2-2.07,1.78-.51.41-1,.88-1.48,1.28C43.42,60.72,43.22,61,42.83,61.11Z"/><path class="cls-15" d="M45.08,50.51l-.33-.13c-.1,0-.25-.05-.18-.23,0,0,0,0,0,0-.2,0-.22-.25-.38-.3a.4.4,0,0,1-.22-.18,4,4,0,0,1-.28-.59.36.36,0,0,1,.43-.48c.14,0,.2,0,.23-.15.09-.33.38-.44.66-.55l.2,0c.16,0,.31,0,.33.2s.09.15.18.06.25-.07.35.07l.22.3s.09.09.06.13c-.16.23,0,.51-.11.74,0,.06,0,.13,0,.2s-.11.35-.06.55-.14.13-.2.21a.83.83,0,0,1-.67.36C45.23,50.64,45.13,50.62,45.08,50.51Z"/><path class="cls-16" d="M45.08,50.51a1.1,1.1,0,0,0,.94-.23.59.59,0,0,0,0,.78,8.26,8.26,0,0,1,.33.82l0,.12c.12.23.09.36-.12.49a.13.13,0,0,1-.1,0c-.2-.1-.44-.13-.56-.34a1.59,1.59,0,0,1-.16-.43c-.07-.31-.19-.6-.29-.91A1,1,0,0,1,45.08,50.51Z"/><circle class="cls-17" cx="45.26" cy="48.8" r="2.3"/><path class="cls-8" d="M51.43,31.22C45,31.1,39.09,31.15,32.7,30c-1.2-.22-2.32-.73-3.5-1-.33-.08-.5-.19-.88.16a.83.83,0,0,0-.18.51c-.38,2.42.17,4.47,1.14,7.17a25,25,0,0,0,3.38,6.38,9.68,9.68,0,0,0,4.86,3.66,16,16,0,0,0,2.84.45"/></g></g></g></svg>