<svg width="30" height="30" viewBox="0 0 30 30" fill="none" xmlns="http://www.w3.org/2000/svg">
<path d="M29.9918 4.125C29.9972 4.21416 30 4.30403 30 4.39453V25.6055C30 28.0325 28.0325 30 25.6055 30H4.39453C1.9675 30 0 28.0325 0 25.6055V4.39453C0 1.9675 1.9675 0 4.39453 0H25.6055C25.6707 0 25.7355 0.00142682 25.8 0.00425087L25.8 0H25.875C28.1532 0 30 1.84683 30 4.125H29.9918ZM15.0586 22.8516C19.4204 22.8516 22.9688 19.3032 22.9688 14.9414C22.9688 10.5796 19.4204 7.03125 15.0586 7.03125C10.6968 7.03125 7.14844 10.5796 7.14844 14.9414C7.14844 19.3032 10.6968 22.8516 15.0586 22.8516ZM23.8477 8.78906C25.3015 8.78906 26.4844 7.6062 26.4844 6.15234C26.4844 4.69849 25.3015 3.51562 23.8477 3.51562C22.3938 3.51562 21.2109 4.69849 21.2109 6.15234C21.2109 7.6062 22.3938 8.78906 23.8477 8.78906ZM23.8477 5.27344C24.3327 5.27344 24.7266 5.66734 24.7266 6.15234C24.7266 6.63734 24.3327 7.03125 23.8477 7.03125C23.3627 7.03125 22.9688 6.63734 22.9688 6.15234C22.9688 5.66734 23.3627 5.27344 23.8477 5.27344ZM15.0586 8.78906C18.4506 8.78906 21.2109 11.5494 21.2109 14.9414C21.2109 18.3334 18.4506 21.0938 15.0586 21.0938C11.6666 21.0938 8.90625 18.3334 8.90625 14.9414C8.90625 11.5494 11.6666 8.78906 15.0586 8.78906Z" fill="#FF8379"/>
</svg>
