<svg width="30" height="23" viewBox="0 0 30 23" fill="none" xmlns="http://www.w3.org/2000/svg">
<path fill-rule="evenodd" clip-rule="evenodd" d="M3.5575 4.54101C3.595 4.19638 3.45375 3.85641 3.17875 3.6251L0.37875 0.470807V0H9.07625L15.7987 13.7796L21.7088 0H30V0.470807L27.605 2.61689C27.3988 2.76409 27.2963 3.00592 27.3388 3.24542V19.0145C27.2963 19.2529 27.3988 19.4947 27.605 19.6419L29.9438 21.788V22.2588H18.1788V21.788L20.6025 19.5893C20.84 19.3674 20.84 19.3019 20.84 18.962V6.21629L14.1038 22.2074H13.1938L5.35 6.21629V16.9339C5.285 17.3837 5.445 17.8381 5.78375 18.1629L8.935 21.7354V22.2074H0V21.7354L3.15125 18.1629C3.48875 17.8369 3.63875 17.3802 3.5575 16.9339V4.54101Z" fill="#FF8379"/>
</svg>
