<svg width="30" height="23" viewBox="0 0 30 23" fill="none" xmlns="http://www.w3.org/2000/svg">
<path d="M30 2.69753C28.8962 3.15549 27.71 3.46391 26.465 3.60294C27.7363 2.89146 28.7125 1.76408 29.1712 0.420576C27.9825 1.07948 26.665 1.55847 25.2625 1.81666C24.1412 0.698624 22.54 0 20.77 0C16.7962 0 13.8763 3.46508 14.7738 7.06218C9.66 6.82268 5.125 4.53288 2.08875 1.05261C0.47625 3.63798 1.2525 7.02012 3.9925 8.7328C2.985 8.70242 2.035 8.44424 1.20625 8.01315C1.13875 10.678 3.1825 13.171 6.1425 13.726C5.27625 13.9456 4.3275 13.997 3.3625 13.8241C4.145 16.1092 6.4175 17.7717 9.1125 17.8184C6.525 19.7145 3.265 20.5615 0 20.2017C2.72375 21.8338 5.96 22.7859 9.435 22.7859C20.8625 22.7859 27.3187 13.7657 26.9287 5.67544C28.1312 4.8635 29.175 3.85061 30 2.69753Z" fill="#FF8379"/>
</svg>
