<svg xmlns="http://www.w3.org/2000/svg" width="500" height="500" viewBox="0 0 500 500">
    <g fill="none" fill-rule="evenodd">
        <path fill="#FFF" d="M0 0h500v500H0z"/>
        <path fill="#1C1E21" d="M111.225 301.3v48.088h-6.112v-8.267c-2.601 3.153-5.521 5.521-8.76 7.12-3.236 1.584-6.776 2.384-10.618 2.384-6.824 0-12.648-2.475-17.49-7.407C63.42 338.285 61 332.282 61 325.208c0-6.923 2.45-12.836 7.322-17.752 4.872-4.92 10.74-7.393 17.594-7.393 3.963 0 7.55.845 10.741 2.52 3.206 1.69 6.02 4.208 8.456 7.557v-8.84h6.112zM86.4 306.036c-3.45 0-6.642.845-9.577 2.533-2.919 1.705-5.249 4.074-6.973 7.151-1.726 3.062-2.588 6.305-2.588 9.714 0 3.395.862 6.639 2.603 9.73 1.754 3.091 4.084 5.49 7.034 7.225 2.935 1.719 6.097 2.579 9.456 2.579 3.403 0 6.626-.86 9.666-2.565 3.04-1.704 5.386-4.012 7.02-6.94 1.648-2.91 2.466-6.197 2.466-9.848 0-5.566-1.846-10.226-5.522-13.968-3.676-3.741-8.2-5.611-13.585-5.611zm37.866 43.352h6.203v-66.641h-6.203v66.641zm12.572-48.088h6.383l14.766 34.92 15.461-34.92h1.12l15.415 34.92 15.023-34.92h6.474l-20.923 48.088h-1.194l-15.341-34.422-15.46 34.422h-1.15L136.838 301.3zm129.996 0v48.088h-6.113v-8.267c-2.6 3.153-5.52 5.521-8.76 7.12-3.236 1.584-6.776 2.384-10.617 2.384-6.824 0-12.65-2.475-17.49-7.407-4.825-4.933-7.246-10.936-7.246-18.01 0-6.923 2.451-12.836 7.323-17.752 4.871-4.92 10.74-7.393 17.594-7.393 3.963 0 7.549.845 10.741 2.52 3.206 1.69 6.02 4.208 8.455 7.557v-8.84h6.113zm-24.826 4.736c-3.449 0-6.64.845-9.576 2.533-2.92 1.705-5.25 4.074-6.974 7.151-1.724 3.062-2.587 6.305-2.587 9.714 0 3.395.863 6.639 2.602 9.73 1.755 3.091 4.084 5.49 7.035 7.225 2.935 1.719 6.098 2.579 9.456 2.579 3.403 0 6.626-.86 9.666-2.565 3.04-1.704 5.385-4.012 7.02-6.94 1.649-2.91 2.466-6.197 2.466-9.848 0-5.566-1.847-10.226-5.522-13.968-3.677-3.741-8.2-5.611-13.586-5.611zm33.6-4.736h6.567l16.581 37.047 16.08-37.047h6.61l-28.773 65.675h-6.55l9.304-21.209-19.818-44.466zm78.107 5.263l-3.994 4.12c-3.314-3.214-6.55-4.827-9.711-4.827-2.013 0-3.722.663-5.16 1.99-1.436 1.328-2.148 2.881-2.148 4.646 0 1.555.591 3.047 1.77 4.465 1.18 1.433 3.662 3.138 7.444 5.084 4.614 2.382 7.746 4.675 9.394 6.894 1.634 2.232 2.45 4.75 2.45 7.555 0 3.938-1.392 7.287-4.174 10.032-2.768 2.73-6.248 4.103-10.409 4.103-2.783 0-5.43-.604-7.958-1.811-2.525-1.207-4.613-2.88-6.277-4.993l3.902-4.419c3.163 3.56 6.52 5.34 10.06 5.34 2.482 0 4.6-.784 6.34-2.384 1.74-1.583 2.617-3.454 2.617-5.612 0-1.763-.574-3.347-1.725-4.72-1.165-1.357-3.752-3.077-7.806-5.129-4.342-2.247-7.292-4.45-8.865-6.637-1.558-2.172-2.345-4.66-2.345-7.466 0-3.65 1.24-6.68 3.738-9.096 2.496-2.413 5.657-3.635 9.47-3.635 4.432 0 8.895 2.171 13.387 6.5z"/>
        <path fill="#F2303A" d="M209.275 254.716c11.026-8.113 25.806-12.172 40.586-12.172 21.501 0 43.001 8.587 52.944 25.759h34.667L327.051 250.3c-22.419-38.714-76.718-42.522-117.776 4.415M293.81 192.9L249.86 117l-87.61 151.303h34.667c19.443-33.579 52.276-63.498 96.893-75.404M404.571 328.54h-25.456l-9.939 20.849h-10.45l31.463-66.413h3.488l31.065 66.413h-10.188l-9.983-20.85zm-4.24-9.162l-8.415-17.876-8.505 17.876h16.92zM429.753 349.388h9.409v-66.412h-9.409z"/>
    </g>
</svg>
